<?xml version="1.0" encoding="UTF-8" standalone="no"?>
<svg xmlns:dc="http://purl.org/dc/elements/1.1/" xmlns:cc="http://creativecommons.org/ns#" xmlns:rdf="http://www.w3.org/1999/02/22-rdf-syntax-ns#" xmlns:svg="http://www.w3.org/2000/svg" xmlns="http://www.w3.org/2000/svg" xmlns:sodipodi="http://sodipodi.sourceforge.net/DTD/sodipodi-0.dtd" xmlns:inkscape="http://www.inkscape.org/namespaces/inkscape" width="503.4" height="801" viewBox="0, 0, 503.4, 801" id="svg2" version="1.1" inkscape:version="0.48.4 r9939" sodipodi:docname="USS_Enterprise_Patch.svg">
  <metadata id="metadata14">
    <rdf:RDF>
      <cc:Work rdf:about="">
        <dc:format>image/svg+xml</dc:format>
        <dc:type rdf:resource="http://purl.org/dc/dcmitype/StillImage"/>
      </cc:Work>
    </rdf:RDF>
  </metadata>
  <defs id="defs12"/>
  <sodipodi:namedview pagecolor="#ffffff" bordercolor="#666666" borderopacity="1" objecttolerance="10" gridtolerance="10" guidetolerance="10" inkscape:pageopacity="0" inkscape:pageshadow="2" inkscape:window-width="1301" inkscape:window-height="744" id="namedview10" showgrid="false" inkscape:zoom="0.52701966" inkscape:cx="251.7" inkscape:cy="400.5" inkscape:window-x="65" inkscape:window-y="24" inkscape:window-maximized="1" inkscape:current-layer="svg2"/>
  <g id="g3781">
    <path id="path4" d="M 252.464,0 C 252.464,0 16.066,325.908 0,801 0,801 289.34,412.545 373.34,513.345 465.148,623.51 503.4,761.22 503.4,761.22 503.4,761.22 460.554,268.53 252.464,0 z" inkscape:connector-curvature="0" style="fill:#000007"/>
    <path id="path6" d="m 153.52,227.467 c -48.106,111.215 -105.63,280.58 -124.153,484.01 20.978,-25.495 46.768,-55.722 75.032,-86.308 99.25,-107.372 173.808,-160.292 227.937,-161.76 23.782,-0.65 44.18,8.394 58.984,26.154 20.96,25.154 39.19,51.566 54.9,77.494 -30.05,-154.86 -88.312,-372.625 -194.984,-527.64 -22.203,35.427 -59.717,100.204 -97.715,188.05 z" inkscape:connector-curvature="0" style="fill:#C8A850"/>
    <g style="stroke-width:20.00000024;stroke-miterlimit:4;stroke-dasharray:none" id="g3774">
      <path sodipodi:type="arc" style="fill:none;stroke:#000000;stroke-width:23.35959224;stroke-linecap:round;stroke-linejoin:round;stroke-miterlimit:4;stroke-opacity:1;stroke-dasharray:none;stroke-dashoffset:0" id="path2991" sodipodi:cx="-110.54649" sodipodi:cy="444.01227" sodipodi:rx="137.30296" sodipodi:ry="114.7712" d="m 26.75647,444.01227 a 137.30296,114.7712 0 1 1 -274.60593,0 137.30296,114.7712 0 1 1 274.60593,0 z" transform="matrix(0.71658983,-0.34469464,0.39960441,0.83074241,153.48723,-80.850097)"/>
      <path transform="matrix(0.64312728,-0.30935762,0.14678451,0.30515209,257.62134,156.42484)" d="m 26.75647,444.01227 a 137.30296,114.7712 0 1 1 -274.60593,0 137.30296,114.7712 0 1 1 274.60593,0 z" sodipodi:ry="114.7712" sodipodi:rx="137.30296" sodipodi:cy="444.01227" sodipodi:cx="-110.54649" id="path3761" style="fill:none;stroke:#000000;stroke-width:40.6843264;stroke-linecap:round;stroke-linejoin:round;stroke-miterlimit:4;stroke-opacity:1;stroke-dasharray:none;stroke-dashoffset:0" sodipodi:type="arc"/>
    </g>
  </g>
</svg>